/* XPM */
static char *result[] = {
/* columns rows colors chars-per-pixel */
"64 64 6 1 ",
"  c #24100C",
". c #181C34",
"X c #553522",
"o c #7C5133",
"O c #A57453",
"+ c None",
/* pixels */
"++++++++++++++++++++++++++++++++++++++++++++++++++++++++++++++++",
"++++++++++++++++++++++++++++++++++++++++++++++++++++++++++++++++",
"++++++++++++++++++++++++++++++++++++++++++++++++++++++++++++++++",
"++++++++++++++++++++++++++++++++++++++++++++++++++++++++++++++++",
"++++++++++++++++++++++++++++++++++++++++++++++++++++++++++++++++",
"++++++++++++++++++++++++++++++++++++++++++++++++++++++++++++++++",
"++++++++                                                ++++++++",
"++++++++                                                ++++++++",
"++++++++                                                ++++++++",
"++++++++                                                ++++++++",
"++++    OOOOOOOOooooOOOOOOOOOOOOOOOOOOOOOOOOooooOOOOOOOO    ++++",
"++++    OOOOOOOOooooOOOOOOOOOOOOOOOOOOOOOOOOooooOOOOOOOO    ++++",
"++++    OOOOOOOOooooOOOOOOOOOOOOOOOOOOOOOOOOooooOOOOOOOO    ++++",
"++++    OOOOOOOOooooOOOOOOOOOOOOOOOOOOOOOOOOooooOOOOOOOO    ++++",
"++++    OOOOOOOOXXXXXXXXXXXXooooXXXXooooooooXXXXOOOOOOOO    ++++",
"++++    OOOOOOOOXXXXXXXXXXXXooooXXXXooooooooXXXXOOOOOOOO    ++++",
"++++    OOOOOOOOXXXXXXXXXXXXooooXXXXooooooooXXXXOOOOOOOO    ++++",
"++++    OOOOOOOOXXXXXXXXXXXXooooXXXXooooooooXXXXOOOOOOOO    ++++",
"++++    OOOOOOOOXXXXooooooooooooooooooooooooXXXXOOOOOOOO    ++++",
"++++    OOOOOOOOXXXXooooooooooooooooooooooooXXXXOOOOOOOO    ++++",
"++++    OOOOOOOOXXXXooooooooooooooooooooooooXXXXOOOOOOOO    ++++",
"++++    OOOOOOOOXXXXooooooooooooooooooooooooXXXXOOOOOOOO    ++++",
"++++    OOOOOOOOooooOOOOOOOOOOOOOOOOOOOOOOOOooooOOOOOOOO    ++++",
"++++    OOOOOOOOooooOOOOOOOOOOOOOOOOOOOOOOOOooooOOOOOOOO    ++++",
"++++    OOOOOOOOooooOOOOOOOOOOOOOOOOOOOOOOOOooooOOOOOOOO    ++++",
"++++    OOOOOOOOooooOOOOOOOOOOOOOOOOOOOOOOOOooooOOOOOOOO    ++++",
"++++    ooooooooXXXXooooooooooooooooooooOOOOOOOOoooooooo    ++++",
"++++    ooooooooXXXXooooooooooooooooooooOOOOOOOOoooooooo    ++++",
"++++    ooooooooXXXXooooooooooooooooooooOOOOOOOOoooooooo    ++++",
"++++    ooooooooXXXXooooooooooooooooooooOOOOOOOOoooooooo    ++++",
"++++    ooooooooXXXXooooooooooooOOOOOOOOoooooooooooooooo    ++++",
"++++    ooooooooXXXXooooooooooooOOOOOOOOoooooooooooooooo    ++++",
"++++    ooooooooXXXXooooooooooooOOOOOOOOoooooooooooooooo    ++++",
"++++    ooooooooXXXXooooooooooooOOOOOOOOoooooooooooooooo    ++++",
"++++    ooooooooXXXXooooOOOOOOOOoooooooooooooooooooooooo    ++++",
"++++    ooooooooXXXXooooOOOOOOOOoooooooooooooooooooooooo    ++++",
"++++    ooooooooXXXXooooOOOOOOOOoooooooooooooooooooooooo    ++++",
"++++    ooooooooXXXXooooOOOOOOOOoooooooooooooooooooooooo    ++++",
"....    ooooooooXXXXOOOOooooooooooooooooooooXXXXoooooooo    ....",
"....    ooooooooXXXXOOOOooooooooooooooooooooXXXXoooooooo    ....",
"....    ooooooooXXXXOOOOooooooooooooooooooooXXXXoooooooo    ....",
"....    ooooooooXXXXOOOOooooooooooooooooooooXXXXoooooooo    ....",
"....    ooooooooXXXXooooooooooooooooXXXXXXXXXXXXoooooooo    ....",
"....    ooooooooXXXXooooooooooooooooXXXXXXXXXXXXoooooooo    ....",
"....    ooooooooXXXXooooooooooooooooXXXXXXXXXXXXoooooooo    ....",
"....    ooooooooXXXXooooooooooooooooXXXXXXXXXXXXoooooooo    ....",
"....    ooooooooXXXXooooooooXXXXXXXXXXXXXXXXXXXXoooooooo    ....",
"....    ooooooooXXXXooooooooXXXXXXXXXXXXXXXXXXXXoooooooo    ....",
"....    ooooooooXXXXooooooooXXXXXXXXXXXXXXXXXXXXoooooooo    ....",
"....    ooooooooXXXXooooooooXXXXXXXXXXXXXXXXXXXXoooooooo    ....",
"................................................................",
"................................................................",
"................................................................",
"................................................................",
"++++........................................................++++",
"++++........................................................++++",
"++++........................................................++++",
"++++........................................................++++",
"++++++++++++++++++++++++++++++++++++++++++++++++++++++++++++++++",
"++++++++++++++++++++++++++++++++++++++++++++++++++++++++++++++++",
"++++++++++++++++++++++++++++++++++++++++++++++++++++++++++++++++",
"++++++++++++++++++++++++++++++++++++++++++++++++++++++++++++++++",
"++++++++++++++++++++++++++++++++++++++++++++++++++++++++++++++++",
"++++++++++++++++++++++++++++++++++++++++++++++++++++++++++++++++"
};
