/* XPM */
static char *result[] = {
/* columns rows colors chars-per-pixel */
"64 64 9 1 ",
"  c #24100C",
". c #382217",
"X c #181C34",
"o c #222A3F",
"O c #553522",
"+ c #7C5133",
"@ c #63759B",
"# c #B4BEC9",
"$ c None",
/* pixels */
"$$$$$$$$$                                              $$$$$$$$$",
"$$$$$$$$$                                              $$$$$$$$$",
"$$$$$$$$$                                              $$$$$$$$$",
"$$$$$$$$$                                              $$$$$$$$$",
"$$$$$$$$$                                              $$$$$$$$$",
"$$$$$    #########++++++++++++++++++++++++++++#########    $$$$$",
"$$$$$    #########++++++++++++++++++++++++++++#########    $$$$$",
"$$$$$    #########++++++++++++++++++++++++++++#########    $$$$$",
"$$$$$    #########++++++++++++++++++++++++++++#########    $$$$$",
"     ++++                                              ++++     ",
"     ++++                                              ++++     ",
"     ++++                                              ++++     ",
"     ++++                                              ++++     ",
"     ++++                                              ++++     ",
"     ++++                                              ++++     ",
"     ++++                                              ++++     ",
"     ++++                                              ++++     ",
"     ++++                                              ++++     ",
"     ++++                                              ++++     ",
"     ++++                                              ++++     ",
"     ++++                                              ++++     ",
"     ++++                                              ++++     ",
"     ++++                                              ++++     ",
"     OOOO#########++++++++++++++++++++++++++++#########OOOO     ",
"     OOOO#########++++++++++++++++++++++++++++#########OOOO     ",
"     OOOO#########++++++++++++++++++++++++++++#########OOOO     ",
"     OOOO#########++++++++++++++++++++++++++++#########OOOO     ",
"     ....@@@@@@@@@OOOOO@@@@oooooooooo@@@@OOOOO@@@@@@@@@....     ",
"     ....@@@@@@@@@OOOOO@@@@oooooooooo@@@@OOOOO@@@@@@@@@....     ",
"     ....@@@@@@@@@OOOOO@@@@oooooooooo@@@@OOOOO@@@@@@@@@....     ",
"     ....@@@@@@@@@OOOOO@@@@oooooooooo@@@@OOOOO@@@@@@@@@....     ",
"     ....@@@@@@@@@OOOOO@@@@oooooooooo@@@@OOOOO@@@@@@@@@....     ",
"     ....@@@@@@@@@OOOOO@@@@oooooooooo@@@@OOOOO@@@@@@@@@....     ",
"     ....@@@@@@@@@OOOOO@@@@oooooooooo@@@@OOOOO@@@@@@@@@....     ",
"     ....@@@@@@@@@OOOOO@@@@oooooooooo@@@@OOOOO@@@@@@@@@....     ",
"     ....@@@@@@@@@OOOOO@@@@oooooooooo@@@@OOOOO@@@@@@@@@....     ",
"     ....@@@@@@@@@OOOOO@@@@oooooooooo@@@@OOOOO@@@@@@@@@....     ",
"     ....@@@@@@@@@OOOOO@@@@oooooooooo@@@@OOOOO@@@@@@@@@....     ",
"     ....@@@@@@@@@OOOOO@@@@oooooooooo@@@@OOOOO@@@@@@@@@....     ",
"     ....@@@@@@@@@OOOOO@@@@oooooooooo@@@@OOOOO@@@@@@@@@....     ",
"     ....@@@@@@@@@OOOOO@@@@oooooooooo@@@@OOOOO@@@@@@@@@....     ",
"     ....@@@@@@@@@OOOOO@@@@@@@@@@@@@@@@@@OOOOO@@@@@@@@@....     ",
"     ....@@@@@@@@@OOOOO@@@@@@@@@@@@@@@@@@OOOOO@@@@@@@@@....     ",
"     ....@@@@@@@@@OOOOO@@@@@@@@@@@@@@@@@@OOOOO@@@@@@@@@....     ",
"     ....@@@@@@@@@OOOOO@@@@@@@@@@@@@@@@@@OOOOO@@@@@@@@@....     ",
"     ....@@@@@@@@@OOOOO@@@@@@@@@@@@@@@@@@OOOOO@@@@@@@@@....     ",
"     ....@@@@@@@@@OOOOOOOOOOOOOOOOOOOOOOOOOOOO@@@@@@@@@....     ",
"     ....@@@@@@@@@OOOOOOOOOOOOOOOOOOOOOOOOOOOO@@@@@@@@@....     ",
"     ....@@@@@@@@@OOOOOOOOOOOOOOOOOOOOOOOOOOOO@@@@@@@@@....     ",
"     ....@@@@@@@@@OOOOOOOOOOOOOOOOOOOOOOOOOOOO@@@@@@@@@....     ",
"XXXXX    @@@@@@@@@OOOOOOOOOOOOOOOOOOOOOOOOOOOO@@@@@@@@@    XXXXX",
"XXXXX    @@@@@@@@@OOOOOOOOOOOOOOOOOOOOOOOOOOOO@@@@@@@@@    XXXXX",
"XXXXX    @@@@@@@@@OOOOOOOOOOOOOOOOOOOOOOOOOOOO@@@@@@@@@    XXXXX",
"XXXXX    @@@@@@@@@OOOOOOOOOOOOOOOOOOOOOOOOOOOO@@@@@@@@@    XXXXX",
"XXXXX    @@@@@@@@@OOOOOOOOOOOOOOOOOOOOOOOOOOOO@@@@@@@@@    XXXXX",
"XXXXXXXXXXXXXXXXXXXXXXXXXXXXXXXXXXXXXXXXXXXXXXXXXXXXXXXXXXXXXXXX",
"XXXXXXXXXXXXXXXXXXXXXXXXXXXXXXXXXXXXXXXXXXXXXXXXXXXXXXXXXXXXXXXX",
"XXXXXXXXXXXXXXXXXXXXXXXXXXXXXXXXXXXXXXXXXXXXXXXXXXXXXXXXXXXXXXXX",
"XXXXXXXXXXXXXXXXXXXXXXXXXXXXXXXXXXXXXXXXXXXXXXXXXXXXXXXXXXXXXXXX",
"$$$$$$$$$XXXXXXXXXXXXXXXXXXXXXXXXXXXXXXXXXXXXXXXXXXXXXX$$$$$$$$$",
"$$$$$$$$$XXXXXXXXXXXXXXXXXXXXXXXXXXXXXXXXXXXXXXXXXXXXXX$$$$$$$$$",
"$$$$$$$$$XXXXXXXXXXXXXXXXXXXXXXXXXXXXXXXXXXXXXXXXXXXXXX$$$$$$$$$",
"$$$$$$$$$XXXXXXXXXXXXXXXXXXXXXXXXXXXXXXXXXXXXXXXXXXXXXX$$$$$$$$$",
"$$$$$$$$$XXXXXXXXXXXXXXXXXXXXXXXXXXXXXXXXXXXXXXXXXXXXXX$$$$$$$$$"
};
