/* XPM */
static char *result[] = {
/* columns rows colors chars-per-pixel */
"64 64 10 1 ",
"  c black",
". c #181C34",
"X c #1C2161",
"o c #AE1E44",
"O c #303F8F",
"+ c #3B5AA3",
"@ c #2F8BB7",
"# c #3FB3BA",
"$ c white",
"% c None",
/* pixels */
"%%%%%%%%%%%%%%%%%%%%%%%%%%%%%%%%%%%%%%%%%%%%%%%%%%%%%%%%%%%%%%%%",
"%%%%%%%%%%%%%%%%%%%%%%%%%%%%%%%%%%%%%%%%%%%%%%%%%%%%%%%%%%%%%%%%",
"%%%%%%%%%%%%%%%%%%%%%%%%%%%%%%%%%%%%%%%%%%%%%%%%%%%%%%%%%%%%%%%%",
"%%%%%%%%%%%%%%%%%%%%%%%%%%%%%%%%%%%%%%%%%%%%%%%%%%%%%%%%%%%%%%%%",
"%%%%%%%%%%%%%%%%%%%%%%%%%%%%%%%%%%%%%%%%%%%%%%%%%%%%%%%%%%%%%%%%",
"%%%%%%%%%%%%%%%%%%%%%%%%%%%%%%%%%%%%%%%%%%%%%%%%%%%%%%%%%%%%%%%%",
"%%%%%%%%%%%%%XXXXXXXXXXXXXXXXXXXXXXXXXXXXXXXXXX%%%%%%%%%%%%%%%%%",
"%%%%%%%%%%%%%XXXXXXXXXXXXXXXXXXXXXXXXXXXXXXXXXX%%%%%%%%%%%%%%%%%",
"%%%%%%%%%%%%%XXXXXXXXXXXXXXXXXXXXXXXXXXXXXXXXXX%%%%%%%%%%%%%%%%%",
"%%%%%%%%%%%%%XXXXXXXXXXXXXXXXXXXXXXXXXXXXXXXXXX%%%%%%%%%%%%%%%%%",
"%%%%%%%%%%%%%XXXXXXXXXXXXXXXXXXXXXXXXXXXXXXXXXX%%%%%%%%%%%%%%%%%",
"%%%%%%%%%XXXX++++@@@@@@@@@@@@@@@@@@@@@@@@@@@@@@XXXX%%%%%%%%%%%%%",
"%%%%%%%%%XXXX++++@@@@@@@@@@@@@@@@@@@@@@@@@@@@@@XXXX%%%%%%%%%%%%%",
"%%%%%%%%%XXXX++++@@@@@@@@@@@@@@@@@@@@@@@@@@@@@@XXXX%%%%%%%%%%%%%",
"%%%%%%%%%XXXX++++@@@@@@@@@@@@@@@@@@@@@@@@@@@@@@XXXX%%%%%%%%%%%%%",
"%%%%%XXXX++++@@@@@@@@@#########################++++XXXXX%%%%%%%%",
"%%%%%XXXX++++@@@@@@@@@#########################++++XXXXX%%%%%%%%",
"%%%%%XXXX++++@@@@@@@@@#########################++++XXXXX%%%%%%%%",
"%%%%%XXXX++++@@@@@@@@@#########################++++XXXXX%%%%%%%%",
"%%%%%XXXX@@@@@@@@##################################XXXXX%%%%%%%%",
"%%%%%XXXX@@@@@@@@##################################XXXXX%%%%%%%%",
"%%%%%XXXX@@@@@@@@##################################XXXXX%%%%%%%%",
"%%%%%XXXX@@@@@@@@##################################XXXXX%%%%%%%%",
"%%%%%XXXX@@@@@@@@#########$$$$    #########    ####+++++XXXX%%%%",
"%%%%%XXXX@@@@@@@@#########$$$$    #########    ####+++++XXXX%%%%",
"%%%%%XXXX@@@@@@@@#########$$$$    #########    ####+++++XXXX%%%%",
"%%%%%XXXX@@@@@@@@#########$$$$    #########    ####+++++XXXX%%%%",
"%%%%%XXXX@@@@@@@@#########$$$$    #########    ####+++++XXXX%%%%",
"XXXXX++++@@@@#############        #########    ####@@@@@XXXX%%%%",
"XXXXX++++@@@@#############        #########    ####@@@@@XXXX%%%%",
"XXXXX++++@@@@#############        #########    ####@@@@@XXXX%%%%",
"XXXXX++++@@@@#############        #########    ####@@@@@XXXX%%%%",
"XXXXX++++@@@@####OOOOOOOOO#####################OOOO@@@@@XXXX%%%%",
"XXXXX++++@@@@####OOOOOOOOO#####################OOOO@@@@@XXXX%%%%",
"XXXXX++++@@@@####OOOOOOOOO#####################OOOO@@@@@XXXX%%%%",
"XXXXX++++@@@@####OOOOOOOOO#####################OOOO@@@@@XXXX%%%%",
"XXXXX++++@@@@#########OOOOOOOOOOOOOOOOOOOOOOOOO####@@@@@XXXX%%%%",
"XXXXX++++@@@@#########OOOOOOOOOOOOOOOOOOOOOOOOO####@@@@@XXXX%%%%",
"XXXXX++++@@@@#########OOOOOOOOOOOOOOOOOOOOOOOOO####@@@@@XXXX%%%%",
"XXXXX++++@@@@#########OOOOOOOOOOOOOOOOOOOOOOOOO####@@@@@XXXX%%%%",
"XXXXX++++++++@@@@#########ooooooooOOOOOOOOO####@@@@+++++XXXX....",
"XXXXX++++++++@@@@#########ooooooooOOOOOOOOO####@@@@+++++XXXX....",
"XXXXX++++++++@@@@#########ooooooooOOOOOOOOO####@@@@+++++XXXX....",
"XXXXX++++++++@@@@#########ooooooooOOOOOOOOO####@@@@+++++XXXX....",
"XXXXX++++++++@@@@#########ooooooooOOOOOOOOO####@@@@+++++XXXX....",
".....XXXX++++++++@@@@@@@@@@@@@@@@@@@@@@@@@@@@@@+++++++++XXXX....",
".....XXXX++++++++@@@@@@@@@@@@@@@@@@@@@@@@@@@@@@+++++++++XXXX....",
".....XXXX++++++++@@@@@@@@@@@@@@@@@@@@@@@@@@@@@@+++++++++XXXX....",
".....XXXX++++++++@@@@@@@@@@@@@@@@@@@@@@@@@@@@@@+++++++++XXXX....",
".............++++++++++++++++++++++++++++++++++++++XXXXX........",
".............++++++++++++++++++++++++++++++++++++++XXXXX........",
".............++++++++++++++++++++++++++++++++++++++XXXXX........",
".............++++++++++++++++++++++++++++++++++++++XXXXX........",
"............................................................%%%%",
"............................................................%%%%",
"............................................................%%%%",
"............................................................%%%%",
"%%%%%%%%%%%%%%%%%%%%%%%%%%%%%%%%%%%%%%%%%%%%%%%%%%%%%%%%%%%%%%%%",
"%%%%%%%%%%%%%%%%%%%%%%%%%%%%%%%%%%%%%%%%%%%%%%%%%%%%%%%%%%%%%%%%",
"%%%%%%%%%%%%%%%%%%%%%%%%%%%%%%%%%%%%%%%%%%%%%%%%%%%%%%%%%%%%%%%%",
"%%%%%%%%%%%%%%%%%%%%%%%%%%%%%%%%%%%%%%%%%%%%%%%%%%%%%%%%%%%%%%%%",
"%%%%%%%%%%%%%%%%%%%%%%%%%%%%%%%%%%%%%%%%%%%%%%%%%%%%%%%%%%%%%%%%",
"%%%%%%%%%%%%%%%%%%%%%%%%%%%%%%%%%%%%%%%%%%%%%%%%%%%%%%%%%%%%%%%%",
"%%%%%%%%%%%%%%%%%%%%%%%%%%%%%%%%%%%%%%%%%%%%%%%%%%%%%%%%%%%%%%%%"
};
