/* XPM */
static char *result[] = {
/* columns rows colors chars-per-pixel */
"64 64 10 1 ",
"  c #24100C",
". c #002C07",
"X c #382217",
"o c #181C34",
"O c #553522",
"+ c #00470E",
"@ c #007E1B",
"# c #7C5133",
"$ c #21A325",
"% c None",
/* pixels */
"%%%%%%%%%%%%%%%%%%%%%%%%%%%%%%%%%%%%%%%%%%%%%%%%%%%%%%%%%%%%%%%%",
"%%%%%%%%%%%%%%%%%%%%%%%%%%%%%%%%%%%%%%%%%%%%%%%%%%%%%%%%%%%%%%%%",
"%%%%%%%%%%%%%%%%%%%%%%%%%%%%%%%%%%%%%%%%%%%%%%%%%%%%%%%%%%%%%%%%",
"%%%%%%%%%%%%%%%%%%%%%%%%%%%.....%%%%%%%%%%%%%%%%%%%%%%%%%%%%%%%%",
"%%%%%%%%%%%%%%%%%%%%%%%%%%.@$$$@..%%....%%%%%%%%%%%%%%%%%%%%%%%%",
"%%%%%%%%%%%%%%%%%%%%....%.@$$$$$$@..@$$$.%%%%%%%%%%%%%%%%%%%%%%%",
"%%%%%%%%%%%%%%%%%%%.@$$@.@$$$$$$$$$@$$$$$....%%%%%%%%%%%%%%%%%%%",
"%%%%%%%%%%%%%%%%%%.@$$$$$@$$$$$$$$$@$$$$$.$$@.%%%%%%%%%%%%%%%%%%",
"%%%%%%%%%%%%%%%%%%.@$$$$$$@$$$$$$$$$$$$$$$$$$@.%%%%%%%%%%%%%%%%%",
"%%%%%%%%%%%%%%%...++$$$$$$$$$$$$$$$$$$$$$$$$$@.%%%%%%%%%%%%%%%%%",
"%%%%%%%%%%%%%%.@@+$$@$$$$$$$$$$$$$$$$$$$$$$$$++.%%%%%%%%%%%%%%%%",
"%%%%%%%%%%%%%.@$$@$$$$$$$$$$$$$$$$$$$$$$$$$$+$$.%%%%%%%%%%%%%%%%",
"%%%%%%%%%%%%%.$$$$$$$$$$$$$$$$$$$$$$$$$$$$$$$$$@.%%%%%%%%%%%%%%%",
"%%%%%%%%%%%%.@$$$$$$$$$$$$$$$$$$$$$$$@$$$$$$$$$@.%%%%%%%%%%%%%%%",
"%%%%%%%%%%%.@@@$$$$$$$$$$$$$$@@+@$@+@$$$$$$$$$$$@.%%%%%%%%%%%%%%",
"%%%%%%%%%%%.@@@$$$$$$$$$$$$$$$$@+++@@$$$$$$$$$$$@.%%%%%%%%%%%%%%",
"%%%%%%%%%%.@@@$$$$$$$$$$$$$$$$$$$@+@$$$$$$$$$$$$$.%%%%%%%%%%%%%%",
"%%%%%%%%%%.@$@$$$$$$$$$$$$$$$$$$$$@$$$$$$$$$$$$$$@.%%%%%%%%%%%%%",
"%%%%%%%%%%.$$$@$$+$$$$$$$$$$$$$$$$$$$$$$$$$$$$$$$$.%%%%%%%%%%%%%",
"%%%%%%%%%%.@$$@@++$$$$$$$$$$$$$$$$$$$$$$$$$$$$$$$$.%%%%%%%%%%%%%",
"%%%%%%%%%%.@@@@++@$$$$$$$$$$$$$$$$$$$$$$$$$$$$$$$@.%%%%%%%%%%%%%",
"%%%%%%%%%%%.++++@@@$$$$$$$$$$$$$$$$$$$$$$$$$$$$$$.%%%%%%%%%%%%%%",
"%%%%%%%%%%.++@+@$$@$$$$$$$$$$$$$$$$$$$$$$$$$$$$$@.%%%%%%%%%%%%%%",
"%%%%%%%%%.+$$@+@$$$@$$$$$$$$$$$$$$$$$$$$$$$$$$$$$@.%%%%%%%%%%%%%",
"%%%%%%%%%.@$$@+@@$$$$$$$$$$$$$$$$$$$$$$$$$$$$$$$$@..%%%%%%%%%%%%",
"%%%%%%%%.@$$@@++@$$$$$$$$$$$$$$$$$$$$$$$$$$$$@$$$$@.%%%%%%%%%%%%",
"%%%%%%%%.@$$$$@+@$$$$$$@$$$$$$$$$$$$$$$$$$$$@@+$$$@.%%%%%%%%%%%%",
"%%%%%%%%.@$$$$$@@$$$$$$@+$$$$$$$$$$$$$$$$$$$++++@@@.%%%%%%%%%%%%",
"%%%%%%%%.+@$$$$@++$$$$@@@++@$$$$@@$$$$$$$$$$$+$$@@.%%%%%%%%%%%%%",
"%%%%%%%%%.+@@$$$$++$$@$$$$++@$$@@@$$$$$$$$$$$@$$$@.%%%%%%%%%%%%%",
"%%%%%%%%%.++++@$$$++@@$$$$$@+@@@@$$$$$$$$$$$$$@$$@@.%%%%%%%%%%%%",
"%%%%%%%%%%.+@$+@$$@@@$$$$$$$@@@$$$$$$$$$$$$$$$@@@@@.%%%%%%%%%%%%",
"%%%%%%%%%%.+$$@@@@+@$$$$$$$$$@$$$$$$$$$$$$$$$$@@@@+.%%%%%%%%%%%%",
"%%%%%%%%%.++$$$@+++@$$@$$$$$@@$$$$$$$$$$$$@$$+@@@@++.%%%%%%%%%%%",
"%%%%%%%%%.+@+@@++$@+@@@$$$$$@@@$$$$$$$$$$$$++@@@@@++.%%%%%%%%%%%",
"%%%%%%%%%.@$$+++$$$$@@$$$$$@$$@@$@$$+$$$@$$+$$@@@+++.%%%%%%%%%%%",
"%%%%%%%%%.@$$@++$$$$$@$$@$$$$$$$$$++@$$@$@@@$$$@@@++.%%%%%%%%%%%",
"%%%%%%%%%.+@@++++$@$$@@@@@$$$$$$$$$+@@@$$$@@@$$@@@@+.%%%%%%%%%%%",
"%%%%%%%%%%.++++@+++@@@@@@@@@$$$$$$$@@@$$$$@@@@@@+@@.%%%%%%%%%%%%",
"%%%%%%%%%%%.++@$$+@@@@+@@$$@$$$$$$$@@@@@$$+@@+@@+++.%%%%%%%%%%%%",
"%%%%%%%%%%%.+.+$$@$@@@++$$$@+$$$$$$$@@+@@+@@@@++++.%%%%%%%%%%%%%",
"%%%%%%%%%%%%...+@$$$@$@+$$@@+$$$$@$$@+++++@@@@+++.%%%%%%%%%%%%%%",
"%%%%%%%%%%%%%.+++$$+$$$@@@@@+@$$@@@@@@+.++@@+++..%%%%%%%%%%%%%%%",
"%%%%%%%%%%%%%.+++++@$$$@+@@+@@@@@@@+@@+.+++++++.%%%%%%%%%%%%%%%%",
"%%%%%%%%%%%%%%.++.+@@@@+.+++@@@@+@@++++...+++++.%%%%%%%%%%%%%%%%",
"%%%%%%%%%%%%%%%...++++++..++@@@+++++++......++.%%%%%%%%%%%%%%%%%",
"%%%%%%%%%%%%%%%%%.+++++...++++++.++++.........%%%%%%%%%%%%%%%%%%",
"%%%%%%%%%%%%%%%%%%.........++++......X oo..oooo%%%%%%%%%%%%%%%%%",
"%%%%%%%%%%%%%%%%%%%oo  XXO.....XXXXXXX ooooooooo%%%%%%%%%%%%%%%%",
"%%%%%%%%%%%%%%%%%ooo #OXOOOXXOOXXXXOXXO ooooooooo%%%%%%%%%%%%%%%",
"%%%%%%%%%%%%%%%%ooo ##XXOXOX##OOXXOOXX# ooooooooo%%%%%%%%%%%%%%%",
"%%%%%%%%%%%%%%%oooo # X#OOX####OXO#OOXO# ooooooooo%%%%%%%%%%%%%%",
"%%%%%%%%%%%%%%ooooo  X###OX####OOO##OXXOX oooooooo%%%%%%%%%%%%%%",
"%%%%%%%%%%%%%%oooooo ##OOO O#OOO#O##OXX##X ooooooo%%%%%%%%%%%%%%",
"%%%%%%%%%%%%%%ooooo ####OX ###O#####OXXO## ooooooo%%%%%%%%%%%%%%",
"%%%%%%%%%%%%%%ooooo ####O O###O#X####O XO# ooooooo%%%%%%%%%%%%%%",
"%%%%%%%%%%%%%%ooooo ###OX #####XXO#O##  OO ooooooo%%%%%%%%%%%%%%",
"%%%%%%%%%%%%%%ooooo OOOX O###O#X XO#### oooooooooo%%%%%%%%%%%%%%",
"%%%%%%%%%%%%%%oooooooooo ###OOOX XO##### oooooooo%%%%%%%%%%%%%%%",
"%%%%%%%%%%%%%%%ooooooooo ###OOX   OO###O oooooooo%%%%%%%%%%%%%%%",
"%%%%%%%%%%%%%%%ooooooooo OOOOOXooo OOOOO ooooooo%%%%%%%%%%%%%%%%",
"%%%%%%%%%%%%%%%%oooooooooooooooooooooooooooooooo%%%%%%%%%%%%%%%%",
"%%%%%%%%%%%%%%%%ooooooooooooooooooooooooooooooo%%%%%%%%%%%%%%%%%",
"%%%%%%%%%%%%%%%%%ooooooooooooooooooooooooooooo%%%%%%%%%%%%%%%%%%"
};
