/* XPM */
static char *d6aba7f71b3d4ce99f605186deac7647y8Yewbd3vW78EZ4k[] = {
/* columns rows colors chars-per-pixel */
"32 32 67 1 ",
"  c black",
". c #000501",
"X c #000701",
"o c #010E02",
"O c #011000",
"+ c #011103",
"@ c #021404",
"# c #031407",
"$ c #05140F",
"% c #051B09",
"& c #071F0B",
"* c #061E0C",
"= c #010010",
"- c #000014",
"; c #061410",
": c #051B11",
"> c #061C11",
", c #071F11",
"< c #071816",
"1 c #081D16",
"2 c #072111",
"3 c #092017",
"4 c #082614",
"5 c #0A2318",
"6 c #0B2C19",
"7 c #0D3912",
"8 c #0D321A",
"9 c #0D3819",
"0 c #0E4513",
"q c #0F4615",
"w c #0F4716",
"e c #0F4B16",
"r c #0F441D",
"t c #104B17",
"y c #104E16",
"u c #114F18",
"i c #114E1D",
"p c #14621D",
"a c #166B22",
"s c #166B23",
"d c #166D23",
"f c #177223",
"g c #177024",
"h c #177124",
"j c #197F26",
"k c #1A7F27",
"l c #1A8124",
"z c #1A8125",
"x c #1B8325",
"c c #1B8728",
"v c #1C8B29",
"b c #1E9229",
"n c #1E952A",
"m c #1E982A",
"M c #1F9B2B",
"N c #1F9B2C",
"B c #20A32C",
"V c #20A22D",
"C c #20A82D",
"Z c #20A92E",
"A c #20AB2E",
"S c #21AD2F",
"D c #22AE2F",
"F c #22B12F",
"G c #22AE30",
"H c #22B130",
"J c #23B531",
/* pixels */
"AAAAAAAAAAAAAAAAAAAAAAAAAAAAAAAA",
"AAAAAAAAAAAAAAAAAAAAAAAAAAAAAAAA",
"AAAAAAAAAAAAAAAAAAAAAAAAAAAAAAAA",
"AAAAAAAAAAAAAAAAAAAAAAAAAAAAAAAA",
"AAAAAAAAAAAACAAAAAACCGAAAAAAAAAA",
"AAAAAADDFFFFDAAAAAAGAGFFDDAAAAAA",
"AAAAADvagggdjAAAAADjsgggavDAAAAA",
"AAAAAHa-3<1-iGAAAAAi-1<5-aDAAAAA",
"AAAAADg1&#% eDAAAAGu %#*1gFAAAAA",
"AAAAAFg<# o eDAAAAGy o #<fDAAAAA",
"AAAAADg1%o# eDAAACGy #o%1fFAAAAA",
"AAAAAFd-    0FDDGAH0    -gFAAAAA",
"AAAAADjiyye0pNmmnmNp0eueijGCAAAA",
"AAAAAAAGDDAFM566665NGADDDAAAAAAA",
"AAAAAAACAAADm$2222;NGAAAAAAAAAAA",
"AAAAAAAAAABCb      bCBCAAAAAAAAA",
"AAAACADCDv8r9 XXXX 9r8cFAAAAAAAA",
"AAAAACAAFl=4>      :4=zFAAAAAAAA",
"AAAAAAACHz +        + zHACAAAAAA",
"AAAAAAACHz +X       # zFCDCAAAAA",
"AAAAAAAAHz +X++#+++X+ zFCAAAAAAA",
"AAAAAAACHz +        # zHAAAAAAAA",
"AAAAAAAAFz  7zjzzjx7  zFCAAAAAAA",
"AAAAAAADHz  eJDHHFJy  zFCAAAAAAA",
"AAAAAAACFz  eACCACGt  zHAAAAAAAA",
"AAAAAAAAFz  eDAAAAGt  zHCAAAAAAA",
"AAAAAAAZHj  eDAACAGe  zHZAAAAAAA",
"AAAAAAAZDVnnnDAACAGmnnBAZGAAAAAA",
"AAAAAAAACAGGGCAAAAAGGGSCAAAAAAAA",
"AAAAAAAAAAACAAAAAAAACCAAAAAAAAAA",
"AAAAAAAAAAAAAAAAAAAAAAAAAAAAAAAA",
"GAAAAAAAAAAAAAAAAAAAAAAAAAAAAAAA"
};
