/* XPM */
static char *d27438b6681e416cd30a6f02c05e54b3fDAmo1iI8YcAIXZy[] = {
/* columns rows colors chars-per-pixel */
"32 32 198 2 ",
"   c black",
".  c #250000",
"X  c #3C0000",
"o  c #362216",
"O  c #440500",
"+  c #580000",
"@  c #510D0F",
"#  c #5E2200",
"$  c #5C2A00",
"%  c #5B3508",
"&  c #452C19",
"*  c #48321E",
"=  c #622802",
"-  c #6A3600",
";  c #693C00",
":  c #663614",
">  c #4E0221",
",  c #590D20",
"<  c #582925",
"1  c #4E3423",
"2  c #513623",
"3  c #523925",
"4  c #5D3B27",
"5  c #5D362B",
"6  c #563B28",
"7  c #5B3D2A",
"8  c #5F3932",
"9  c #633A2B",
"0  c #6B3E31",
"q  c #3F5801",
"w  c #007B00",
"e  c #405600",
"r  c #704407",
"t  c #794600",
"y  c #7A4A13",
"u  c #4F4A25",
"i  c #584527",
"p  c #5D422B",
"a  c #5B4C2B",
"s  c #5B542C",
"d  c #545929",
"f  c #5A5B2D",
"g  c #5C4333",
"h  c #5E5A36",
"j  c #61442D",
"k  c #6B4A2E",
"l  c #765129",
"z  c #664932",
"x  c #664837",
"c  c #6C4C34",
"v  c #694C3B",
"b  c #714F34",
"n  c #6E5136",
"m  c #695838",
"M  c #725136",
"N  c #795B36",
"B  c #755439",
"V  c #79563B",
"C  c #77583D",
"Z  c #7C5A3D",
"A  c #5E6D33",
"S  c #5C7836",
"D  c #62602D",
"F  c #626733",
"G  c #6A4D42",
"H  c #7B5B43",
"J  c #785B47",
"K  c #6B724D",
"L  c #70635E",
"P  c #6D6765",
"I  c #6D6A6B",
"U  c #716A65",
"Y  c #6D7270",
"T  c #88530B",
"R  c #834E14",
"E  c #8C5613",
"W  c #8A5514",
"Q  c #8D591B",
"!  c #925C1C",
"~  c #875523",
"^  c #825D3F",
"/  c #8A613E",
"(  c #A66E3C",
")  c #AB7137",
"_  c #845E41",
"`  c #866143",
"'  c #8C6545",
"]  c #8F6946",
"[  c #86644A",
"{  c #8A674C",
"}  c #87684D",
"|  c #8D694B",
" . c #906747",
".. c #916946",
"X. c #9A6C45",
"o. c #946B4A",
"O. c #9A6E4B",
"+. c #9C714D",
"@. c #846B5B",
"#. c #966F51",
"$. c #8F735E",
"%. c #9C7253",
"&. c #A67247",
"*. c #BB7E45",
"=. c #B57C4B",
"-. c #A27552",
";. c #A67855",
":. c #AB7C56",
">. c #AD7D59",
",. c #B17F59",
"<. c #927A6A",
"1. c #897C75",
"2. c #3F8F00",
"3. c #2C9C00",
"4. c #3B9500",
"5. c #39A400",
"6. c #449A00",
"7. c #4B9E00",
"8. c #4EA000",
"9. c #53A300",
"0. c #56AB00",
"q. c #5BB100",
"w. c #5FAE16",
"e. c #65B61D",
"r. c #5C953E",
"t. c #64993E",
"y. c #66AE2C",
"u. c #69A33F",
"i. c #7DBF3D",
"p. c #5B9542",
"a. c #6A8848",
"s. c #6A9845",
"d. c #73904A",
"f. c #5FA244",
"g. c #62A342",
"h. c #6AA643",
"j. c #6CAA44",
"k. c #6EAC49",
"l. c #71AB46",
"z. c #72AB4A",
"x. c #6FB147",
"c. c #73B64A",
"v. c #72B64C",
"b. c #6CA350",
"n. c #6FAA52",
"m. c #71AC53",
"M. c #73A958",
"N. c #76B253",
"B. c #7CB558",
"V. c #83B739",
"C. c #BB804B",
"Z. c #AD8257",
"A. c #B4825B",
"S. c #BC875A",
"D. c #BA865E",
"F. c #81AE4F",
"G. c #84B44F",
"H. c #89AC5B",
"J. c #83B352",
"K. c #81B259",
"L. c #87B95A",
"P. c #BE8A62",
"I. c #8CBD62",
"U. c #C28553",
"Y. c #C38C62",
"T. c #87C35B",
"R. c #8EC262",
"E. c #92C464",
"W. c #9CCC6A",
"Q. c #9AD069",
"!. c #858787",
"~. c #889092",
"^. c #A7A19E",
"/. c #ADA8A4",
"(. c #B6ACA6",
"). c #B8ACA6",
"_. c #AEB2A5",
"`. c #BEB0A8",
"'. c #C3B3A9",
"]. c #CDB8AC",
"[. c #D5BDAE",
"{. c #ACCB9F",
"}. c #B4CDA9",
"|. c #B5D1A9",
" X c #BCD4AD",
".X c #BBCAB9",
"XX c #BED4B6",
"oX c #BFD1B9",
"OX c #C1D4B9",
"+X c #C4DABB",
"@X c #D8D6D5",
"#X c #DBD8D7",
"$X c #DDDAD8",
"%X c #E4DDD9",
"&X c #E8DFDB",
"*X c #D8E4D4",
"=X c #E7E5E4",
"-X c #FCFAFD",
/* pixels */
"-X-X-X-X-X-X-X-X-X-X-X-X-X-X-X-X-X-X-X-X-X-X-X-X-X-X-X-X-X-X-X-X",
"*XXX+X+X+X+XoXoXOXOXOXOXOXOXOXOX+X+X+X+XOXoXoXOXOXOXoXoX.XOXXX*X",
"{.5.e.q.0.0.8.6.7.6.0.0.4.4.7.9.e.e.q.0.7.7.7.7.8.7.4.4.w 2.3.{.",
" Xy.B.N.L.I.K.B.K.K.a.K b.m.m.m.M.B.R.R.I.I.N.N.m.n.m.m.b.b.y.}.",
"|.w.x.u.N.L.G.F.J.G.s > t.u.g.g.f.f.R.R.E.T.x.j.f.g.j.j.h.k.8.}.",
" Xi.d.d L.Q.N.h.k.l.D 7 j.k.A A k.v.T.T.E.E.E.L.f S f.p.g.s.q _.",
" XV.K > H.W.z.t.h.h.f 4 j.l.4 4 k.v.c.J.E.E.E.H., f p.p.s.a.X /.",
"_.e L P K A f u h.v.f < f f i a f.f.F S c.z.D D V m d f d F = (.",
"(.O L I G < 0 0 s.h.m j 5 < 9 a p.r.< p s.s.< 9 Z B 9 9 < v r ).",
"'.Q } C | o.Z.S.N u ' ..^ Z V V a i i i u h Y U N Z +./ * n $ ).",
"`.W ` c ' O.:.S.B 8 ] O.V b V B 9 5 j j 9 x P L B Z o.^ 6 J R '.",
"(.# v 2 ` +.X.O.N l ] O.j 2 * * * 2 V C B c & 2 Z N B V M O.*.[.",
"'.~ J < _ o.' ' @.@.| ' c z _ _ ` _ V Z O.o._ _ N Z ^ ^ B o.) ].",
"OXC._ & c M n n !.~.J M C Z S.Y.Y.S.Z ` S.Y.Y.A.V ^ +.X.M ` W '.",
"[.*.X.9 | +.+.+.<.<.} ^ C Z +.-.:.-.c B ;.;.:.-.V Z ` ` ` o.W '.",
"[.*.O.b A.Y.P.P.+.X.O.O.Z V B B X...1 7 ..o.X...C V B _ +.%.Q '.",
"'.( | b ' o.-.-.' _ o.o.Z V z k ^ ` _ _ O.o._ ^ V V B V B H t `.",
"'.W [ V B b ' O.H M o.O.Z C 5 6 M V O.O.O. .V B N B B b 1 v = (.",
"'.E #...B j Z ^ V B M c j p c B V V ^ ^ ^ ^ V ` :.:.,.+.c _ T '.",
"'.E %.O.b * b Z V V 7 3 7 7 V H B B V V V V V ` P.D.Y.:.M } Q '.",
"'.E %.O.^ c ;.A.A.A.^ c :.Z.o.' 9 k ,.A.A.>.V Z -.+.+.$.!.1.- ).",
"'.E O.o._ B :.D.D.D.' _ A.D.O.] g x A.D.P.,.V Z ] o./ $.~.1.= (.",
"'.Q { Z V B o.O.O.O.A.D.Z V o.o.I I O.O.O.o.C V i M +.] J G . /.",
"'.W _ c V Z '  . . .,.A.] ` ] ..I U ' ' ' ' V B 6 c ..' / [ : (.",
"(.- v * _ +._ V O.+.O.O.D.S.H B Z V Z Z M V Z C V V c ' P.P.*.[.",
"(.- J b _  .^ Z _ ` ` ' :.,.` Z Z V c M  .' b M V ^  .+.,.A.( ].",
"(.$ #.+._ B b M 7 1 B H o.o.+.+.V V 2 k Y.A.1 p B ' Y.A...#.T '.",
"`.t { ' B c o.-.M z c c ` ' Z N V V c B -.#.c c N ` -.-.O.#.W '.",
"'.! [ V 7 o ;.Y.[ V p 3 n n 6 6 V C B B B V Z H V V z V O.-.! '.",
"`.y J x o.%.P.Y.| B B B %.;.z g V _ ;.-.H H z n H [ >.-._ } : ).",
"(.+ % . ( S.=.=.~ ; r r =.C.$ O ; y S.=.r ; X @ - ~ U.&.- :   ^.",
"=X#X#X@X%X&X&X%X%X$X$X$X&X=X#X#X#X$X&X%X*X#X#X$X$X$X&X&X$X$X@X=X"
};
