/* XPM */
static char *_e30b9127b144c33ef0e27c1baf958826vXStbhqAToMqGkY[] = {
/* columns rows colors chars-per-pixel */
"32 32 185 2 ",
"   c #0C0002",
".  c #0E0108",
"X  c #0C0809",
"o  c #120003",
"O  c #13080E",
"+  c #1E0A15",
"@  c #210710",
"#  c #311A22",
"$  c #36272A",
"%  c #3D3332",
"&  c #3D3B3C",
"*  c #42252A",
"=  c #4B2D39",
"-  c #532E36",
";  c #483435",
":  c #4E3A3E",
">  c #55343B",
",  c #52393D",
"<  c #563643",
"1  c #583D42",
"2  c #534346",
"3  c #544B50",
"4  c #744646",
"5  c #744847",
"6  c #774548",
"7  c #7A4A4A",
"8  c #605456",
"9  c #6F5D5D",
"0  c #755C5F",
"q  c #6F5C60",
"w  c #8A5B57",
"e  c #8D5659",
"r  c #865D5B",
"t  c #8C5D5E",
"y  c #8C605F",
"u  c #8D5E61",
"i  c #905F63",
"p  c #8F6360",
"a  c #906364",
"s  c #986466",
"d  c #996C67",
"f  c #9C6F6C",
"g  c #936B6B",
"h  c #966C70",
"j  c #9F6C71",
"k  c #A67579",
"l  c #A47A7B",
"z  c #F49EA7",
"x  c #F59FA8",
"c  c #D6AFB2",
"v  c #D9B7B8",
"b  c #ECABAC",
"n  c #F5A0A7",
"m  c #F5A4AB",
"M  c #F9A5AB",
"N  c #F4ABAD",
"B  c #F9ACAE",
"V  c #FAB0AF",
"C  c #E5AFB9",
"Z  c #FCAEB3",
"A  c #EFB4B6",
"S  c #E4B5BA",
"D  c #EBB6BA",
"F  c #E5BBBE",
"G  c #EBBABD",
"H  c #F4B4B5",
"J  c #FAB1B4",
"K  c #F2BAB6",
"L  c #F4B5BB",
"P  c #FCB4BA",
"I  c #F4BBBC",
"U  c #FBBCBD",
"Y  c #E9C0BE",
"T  c #F4C2BE",
"R  c #FBC1BE",
"E  c #F9C9BE",
"W  c #E7B8C0",
"Q  c #ECBDC2",
"!  c #F5B6C1",
"~  c #F4BDC3",
"^  c #FBBDC2",
"/  c #F4BEC8",
"(  c #E7C3C3",
")  c #ECC2C4",
"_  c #E4C8C7",
"`  c #EFCBC6",
"'  c #EDC4C9",
"]  c #EDCBCB",
"[  c #F5C3C3",
"{  c #FCC1C3",
"}  c #FEC2C1",
"|  c #F9C6C3",
" . c #F8C7C3",
".. c #F8C5C2",
"X. c #FBC2C6",
"o. c #FEC0C5",
"O. c #FEC2C5",
"+. c #FAC4C4",
"@. c #F9C6C5",
"#. c #FAC5C5",
"$. c #FEC6C5",
"%. c #FDC7C7",
"&. c #FEC5C5",
"*. c #FBC3C3",
"=. c #F1C8C6",
"-. c #F6C9C5",
";. c #F2CDC7",
":. c #F6C9C4",
">. c #F9C8C4",
",. c #FBC8C5",
"<. c #FBC8C7",
"1. c #FACBC6",
"2. c #FCC9C6",
"3. c #FAC9C3",
"4. c #F1C7C8",
"5. c #F6C5C8",
"6. c #F4C4C9",
"7. c #FFC6C8",
"8. c #FDC5CA",
"9. c #F3CBCB",
"0. c #F2CAC8",
"q. c #F2CCC9",
"w. c #F4CACB",
"e. c #F9C9C9",
"r. c #FBC9C8",
"t. c #F8CBC8",
"y. c #FFCBC9",
"u. c #FFC9CA",
"i. c #FECBCA",
"p. c #FDC9C8",
"a. c #FBCEC9",
"s. c #FFCDC9",
"d. c #FFCDCA",
"f. c #FFCECA",
"g. c #FFCFCB",
"h. c #FECECA",
"j. c #FFCEC9",
"k. c #FBCDCD",
"l. c #FBCFCC",
"z. c #FFCFCC",
"x. c #FBC9CB",
"c. c #EED1CD",
"v. c #F5D3C9",
"b. c #F7D2C9",
"n. c #F2D0CF",
"m. c #F9D1C9",
"M. c #F9D3CB",
"N. c #FBD3CB",
"B. c #FDD1CA",
"V. c #FFD1CB",
"C. c #FFD0CC",
"Z. c #FED1CC",
"A. c #FFD0CD",
"S. c #FFD3CC",
"D. c #FED1CF",
"F. c #FCD4CC",
"G. c #FED1CE",
"H. c #EBCED0",
"J. c #F4CCD1",
"K. c #FACDD1",
"L. c #EFD1D1",
"P. c #F4D2D1",
"I. c #FFD3D0",
"U. c #FFD5D2",
"Y. c #FFD7D2",
"T. c #FED5D1",
"R. c #FBD3D4",
"E. c #F4D8D7",
"W. c #FFD8D2",
"Q. c #FFD5DB",
"!. c #FDDBDC",
"~. c #FFE1DF",
"^. c #FFDCE4",
"/. c #F6E4E4",
"(. c #FEE2E4",
"). c #F6E7EA",
"_. c #FEE5EA",
"`. c #F4EAEA",
"'. c #FEEAEC",
"]. c #F1F0EC",
"[. c #FFE6F0",
"{. c #FEECF2",
"}. c #FFF3F3",
"|. c #FEF8F6",
" X c #FFFBFA",
/* pixels */
"A I P J M z n M Z H L H L P P P P P ^ U T E :.*.^ ^ ^ ^ *.5.0.] ",
"H I P J M z z m P P L L H P P P P ^ U ^ T T [ [ ! ^ ^ { X.5.w.0.",
"K P P J m z z m J L H L H L Z P U ^ } R T T [ [ I I I ~ [ -.0.` ",
"J I P J M z m m J L K L I P P P U U I R [ T [ [ [ R ^ { #.-.;.;.",
"V J J B M M m N U I U R O.O.$.O.U I I T =.-.-.3.a.u.2.u.a.N.N.v.",
"V V J B B m B N U U U R 7.u.u.7.I L G I :.,.;.,.A.A.z.S.S.F.N.v.",
"V V J B N N m b U I K R #.r.r.#.I L K I :.r.,.,.S.a.a.a.a.N.N.b.",
"J V J N N b b b { R T [ r.r.,...I L I ~ *.7.#.#.A.a.a.a.S.S.S.N.",
"H U J H U } H $.$.$.......[ [ [ ~ ^ ^ ^ ^ ^ ~ *.a.{ :.z.a.U.A.W.",
"H A A K [ a.-.[ 2.2.,.3...3.3.3.{ ^ O.O.{ ^ } *.:.k.I.0.U.I.N.U.",
"G D G ) Y Y ;.:.r.r.$.#.....E 3.R ~ ^ ^ ^ ^ ^ [ 5.K.` v !.!.Q.k.",
"F S c v n.] q.;.=.#.#.*.} ..T T [ { O.^ ^ ^ / 6.K.E.L.E._ ] P.] ",
"- > * 0 ~.|.'.'.) [ ~ U R I T T ,.r.r.7.8.8.8.w.{.{.}.}.9 ; : 1 ",
"o @   2 `. X}.{.) Q ! I I I T K -.a.x.x.8.r.6.H.}.}.|. X%   o   ",
"o + . 3 `.|.}.{.( ~ I U I I U T -.=.0.r.5.:.` ] }.|.].|.& X O   ",
"< = # 0 }.|. X_.( ' [ Q ^ T T ) n.c.P.J.w.] ] c.}.|.|.|.8 $ : : ",
"C C S W Q ' J.J.^.^.^.^.^.[._.^./.`.'._.(.(.(.(.!.E.!.J.) F F G ",
"! ! L I ! / / Q Q.^.^.^.[.[.[.[.`.`.).`.'.'._.(.K.K.K.k.[ I I { ",
"L H L L ~ / / ~ Q.Q.^.^.[.[._.{.{.'._.'.(.'.(.~.P.I.A.u.T K I R ",
"H H H I I ^ *.6.Q.Q.J.J.[.^.^.Q.!.!.(.'.P.!.!.~.K.A.A.1.T T K T ",
"I U U I I I I K i i i k Q K.K.K.R.R.R.Q l p y d E :.3.3.E E E E ",
"U R R U R I K G e 7 6 u S 6./ Q 6.w.a.D y 4 7 w Y T T 3.:.E E 3.",
"U U U R { ^ Q ! u 7 6 i W w.e.=.x.K.K.) t 5 5 w T :.3.E 3.E 3.E ",
"} U U ^ ^ / ! ! j i i h ' J.' ] 9.9.J.] g r p f T [ $.2.3.3.3.3.",
"P L L L ! ^ / / Q.Q.^.^.^.(._._.(.~.~.~.!.P.U.U.t.a.8.8.O.^ ^ O.",
"P L ! ! ! / / / ^._._._._.'.'.'.(.'.(.(.!.!.Q.Q.9.x.K.8.8.^ ^ ^ ",
"! L L ! ! / / 6.^.^.(.(.(._._._.'.'.'.(.~.!.!.!.w.K.8.8./ ^ ^ ^ ",
"! ! ! ! ~ / Q / ^.^.^.(._._.(.'./.~.~.!.!.E.Q.Q.e.x.8.8.^ ^ ^ ^ ",
"8.8.8.X./ ^ 6.[ W G W ) ) ' ' ) M.P.P.n.q.=.=.0.r.r.7.O.^ ^ L ^ ",
"8.8.7.#.8.~ [ ~ G G G Q [ 6.6.:.0.t.r.,.[ Y I [ :.$.$.R ^ L H L ",
"r.,.,.:.[ I G I A A A H I ^ } U $.$.u.2.R R R R O.$.$.R I K K K ",
"-.-.3.:.T Y R { H A H P U ^ U P $.$.$.$.R U R R $.$.3.R I K K K "
};
