/* XPM */
static char *_f52f6e0afb5461e9e8fded9ac306312RAtekwzuw9UyqHQh[] = {
/* columns rows colors chars-per-pixel */
"32 32 121 2 ",
"   c #A29867",
".  c #ABA36F",
"X  c #AFA874",
"o  c #B5AE79",
"O  c #B9AF7A",
"+  c #BAB27C",
"@  c #BDB582",
"#  c #BEB688",
"$  c #C0B685",
"%  c #C2BA85",
"&  c #C6BD8B",
"*  c #C9BF8C",
"=  c #C7C08C",
"-  c #CBC38D",
";  c #CDC592",
":  c #CFC894",
">  c #CFC699",
",  c #D1C795",
"<  c #D2CB96",
"1  c #D2C799",
"2  c #D5CD9A",
"3  c #D8CE9C",
"4  c #D7D09B",
"5  c #DAD29D",
"6  c #D6CEA1",
"7  c #DCD4A3",
"8  c #DFD8A2",
"9  c #DED6A9",
"0  c #E0D6A5",
"q  c #E2DAA5",
"w  c #E2D7A9",
"e  c #E6DFAB",
"r  c #E5DDAA",
"t  c #E1D8AD",
"y  c #E3DBAC",
"u  c #E3DBAD",
"i  c #E2D9AE",
"p  c #E3DAAF",
"a  c #E5DDAC",
"s  c #E4DCAD",
"d  c #E7DDAC",
"f  c #E4DCAE",
"g  c #E5DDAE",
"h  c #E5DDAF",
"j  c #E7DCAE",
"k  c #E7DFAE",
"l  c #E6DEAF",
"z  c #E4DBAA",
"x  c #E8DDAF",
"c  c #E8DEAB",
"v  c #E2D9B0",
"b  c #E4DBB0",
"n  c #E6DEB0",
"m  c #E7DFB0",
"M  c #E7DFB1",
"N  c #E7DFB0",
"B  c #E9DEB0",
"V  c #EADFB1",
"C  c #E7E0AA",
"Z  c #E7E0A9",
"A  c #E8E1AB",
"S  c #E8E1AD",
"D  c #E9E2AC",
"F  c #EAE3AC",
"G  c #EAE3AD",
"H  c #E8E0AF",
"J  c #EBE4AE",
"K  c #ECE5AF",
"L  c #EAE2AD",
"P  c #E9E1B0",
"I  c #E8E0B1",
"U  c #EAE2B1",
"Y  c #EBE3B2",
"T  c #ECE4B3",
"R  c #EDE6B2",
"E  c #EAE2B4",
"W  c #EBE3B4",
"Q  c #EAE1B6",
"!  c #EDE5B7",
"~  c #EDE4B2",
"^  c #EFE8B3",
"/  c #F0E5B7",
"(  c #F0E6B4",
")  c #F1EAB4",
"_  c #F2EBB7",
"`  c #F3ECB6",
"'  c #F0E7BC",
"]  c #F2EAB9",
"[  c #F3EBBA",
"{  c #F3ECB8",
"}  c #F6EFB8",
"|  c #F5EEBA",
" . c #F6EFBB",
".. c #F1E8BD",
"X. c #F2EABC",
"o. c #F2E9BE",
"O. c #F3EABF",
"+. c #F7EFBE",
"@. c #F4EBB9",
"#. c #F8EEB9",
"$. c #F7F0BA",
"%. c #F7F0BC",
"&. c #F9F2BB",
"*. c #FAF3BD",
"=. c #FCF5BF",
"-. c #FBF2BD",
";. c #F4EBC2",
":. c #F6EEC0",
">. c #F6EDC2",
",. c #FCF4C3",
"<. c #FAF1C6",
"1. c #FCF4C6",
"2. c #FFF7C6",
"3. c #FCF4C3",
"4. c #FFF8C2",
"5. c #FFFFC9",
"6. c #FFFACF",
"7. c #FFFFCD",
"8. c #FFFDCC",
"9. c #FFFED0",
"0. c #FFFFD4",
/* pixels */
"* 3 9 r u 9 6 9 Z 8 8 5 < < 4 8 e n 9 9 6 > 6 7 9 7 u 1._ : - 5 ",
"7 6 6 6 7 b I 6 @ = < < - : < 4 e n 9 9 ;.9.;.6 6 6 7 9 8 4 7 e ",
"7 7 7 7 9 9 u 7 + % : 4 : < < < u n u u :.9.X.> 9 9 7 2 4 7 8 A ",
"5 D Z U %.u 2 7 : : : 4 4 5 5 4 7 9 n u n W n u 9 6 6 : < 4 4 ) ",
"8 D D ^ 2.R 2 4 7 4 5 4 4 5 8 7 5 6 8 e 9 y e M e < : : : : 5 } ",
"< 4 8 9 9 9 9 4 : < 5 5 < < 4 4 = @ 4 8 5 8 8 8 9 8 Z q 5 4 : 4 ",
"- - 4 4 > 4 9 7 - < 5 4 : - : 2 X . = 4 < 7 8 e e A K Z q q 4 + ",
"5 5 4 4 u 9 6 6 8 q A r 5 7 8 9 : + : 4 < 4 4 e 8 5 4 < < q Z % ",
"F 5 4 8 ! 9 > 6 I E H 9 e e n E 4 : = = : < 8 S 8 4 = + : ^ ^ - ",
"4 5 7 7 6 v ;.Q 7 9 S H y 9 9 9 < : 5 Z 4 < 4 < 4 < = : < 8 8 = ",
": 4 9 7 > Q 0.1.2 6 W S 8 9 8 8 4 4 G *.A 5 : + = = : : > 7 6 @ ",
"= : 9 7 # 9 <.E # : E S 5 7 6 4 5 < 8 A 8 8 8 4 4 4 4 5 4 9 9 ; ",
"o < y : # > 9 2 @ & q Z < < : - 2 4 4 4 5 e  .7.{ 9 6 n n 9 6 6 ",
"% 4 7 2 2 6 6 4 = ; 5 5 5 5 Z q 6 7 2 < y e S { W 7 7 u u e v 9 ",
"5 4 2 7 E 9 4 8 4 5 < 4 8 Z &.&.n 8 > = > 2 < > 7 7 9 7 9 ;.;.v ",
"5 5 4 8 y 8 2 6 5 7 - 4 Z 8 } } 7 7 7 6 < 2 4 2 6 7 9 9 9 ! ! v ",
"c w 3 j / c j j w w 3 1 c c 8 q 7 ; | 9.5 o < 8 4 5 > 9 6 7 8 6 ",
"3 0 w j V V V 3 0 3 , 3 c c 3 3 2 4 X.5.8 @ : q 5 < 6 9 7 7 4 5 ",
"* 1 1 0 V w 3 0 3 0 0 3 1 1 < 3 7 4 4 y 5 4 q ^ S 4 7 7 4 7 6 S ",
"$ 1 3 0 w 0 3 3 3 3 0 3 , , 3 < 6 8 4 5 4 8 A } S 7 7 u 8 2 < R ",
"w 3 j * . * ( 3 * 3 c c 5 < 5 3 e ^ R _ A Z 8 < 6 2 e 8.1.4 < 8 ",
"j w w $   * c 0 $ 1 c ( 5 < 5 8 R R R _ F Z 8 < 7 6 n 9.1.6 6 4 ",
"* w j 0 8 , * 3 3 3 3 0 5 5 5 < 8 e e 8 5 4 F &.S > 6 9 9 : < = ",
"* 3 j j ( 5 $ , q 3 3 3 5 5 5 5 7 9 5 4 8 : F 5.X.: > > ; : : o ",
"V V 7 7 3 3 c 0 8 5 < 4 8 8 - % , - 5 5 5 3 5 q 7 7 7 9 9 2 - : ",
"( w 7 7 1 q #.( q 5 < 4 8 8 % O % * < 5 5 < < - 2 7 z z 7 > : 2 ",
"( 0 w 7 * , , , 4 4 < : 4 5 5 8 < 3 q F Z 8 8 < 7 9 9 7 7 z 5 4 ",
"7 w x 3 - $ . O < < < : < < ) &.Z Z ) } F Z F Z S H 9 2 7 c z 3 ",
"5 r 7 4 3 - + - 2 2 < 2 5 3 c c 3 < c ( 5 - 3 5 7 j j 1 , 3 7 3 ",
"7 5 2 2 3 < 2 5 7 5 < 4 7 3 c 5 * % 3 8 * O * < 7 j 7 * & , 3 7 ",
"8 5 7 4 2 < & < T I 3 7 , 2 c c 3 - 5 c - % , 5 w w 6 1 , 3 3 3 ",
"2 8 D 4 7 < o 5 7.3.w 5 & , c ( 0 3 F #.8 , 3 0 3 0 7 7 0 5 , * "
};
